<svg aria-hidden="true" style="position: absolute; width: 0; height: 0; overflow: hidden;" version="1.1" xmlns="http://www.w3.org/2000/svg" xmlns:xlink="http://www.w3.org/1999/xlink">
  <defs>
    <symbol id="icon-search" viewBox="0 0 32 32">
      <title>search</title>
      <path fill="none" stroke="#115f85" style="stroke: var(--color1, #115f85)" stroke-linejoin="miter" stroke-linecap="butt" stroke-miterlimit="4" stroke-width="2" d="M2.8 13.8c0-6.050 4.95-11 11-11s11 4.95 11 11c0 6.050-4.95 11-11 11s-11-4.95-11-11v0z"></path>
      <path d="M28.064 29.398c-4.446-4.446-6.815-6.815-7.105-7.105-0.436-0.436 1.137-1.692 1.527-1.302 0.26 0.26 2.591 2.591 6.993 6.993 0.389 0.389 0.389 1.025 0 1.414s-1.025 0.389-1.414 0z"></path>
    </symbol>
    <symbol id="icon-video" viewBox="0 0 32 32">
      <title>video</title>
      <path d="M22.667 14v-4.667c0-0.733-0.6-1.333-1.333-1.333h-16c-0.733 0-1.333 0.6-1.333 1.333v13.333c0 0.733 0.6 1.333 1.333 1.333h16c0.733 0 1.333-0.6 1.333-1.333v-4.667l3.053 3.053c0.84 0.84 2.28 0.24 2.28-0.947v-8.227c0-1.187-1.44-1.787-2.28-0.947l-3.053 3.067z"></path>
    </symbol>
    <symbol id="icon-close" viewBox="0 0 32 32">
      <title>close</title>
      <path d="M25.903 7.709l-18.468 18.468c-0.519 0.519-1.367 0.519-1.886 0s-0.519-1.367 0-1.886l18.468-18.468c0.519-0.519 1.367-0.519 1.886 0s0.519 1.367 0 1.886z"></path>
      <path d="M7.434 5.823l18.468 18.468c0.519 0.519 0.519 1.367 0 1.886s-1.367 0.519-1.886 0l-18.468-18.468c-0.519-0.519-0.519-1.367 0-1.886s1.367-0.519 1.886 0z"></path>
    </symbol>
    <symbol id="icon-info" viewBox="0 0 32 32">
      <title>info</title>
      <path fill="#125f85" style="fill: var(--color2, #125f85)" d="M17.2 22.101c0 0.55-0.45 1-1 1s-1-0.45-1-1v-8.576c0-0.55 0.45-1 1-1s1 0.45 1 1v8.576z"></path>
      <path fill="none" stroke="#125f85" style="stroke: var(--color2, #125f85)" stroke-linejoin="miter" stroke-linecap="butt" stroke-miterlimit="4" stroke-width="2" d="M16.2 29.4c-7.26 0-13.2-5.94-13.2-13.2s5.94-13.2 13.2-13.2c7.26 0 13.2 5.94 13.2 13.2s-5.94 13.2-13.2 13.2"></path>
      <path fill="#125f85" style="fill: var(--color2, #125f85)" d="M16.2 11.515c0.671 0 1.216-0.544 1.216-1.216s-0.545-1.216-1.216-1.216c-0.671 0-1.216 0.544-1.216 1.216s0.545 1.216 1.216 1.216z"></path>
    </symbol>
    <symbol id="icon-study-arrow" viewBox="0 0 32 32">
      <title>study-arrow</title>
      <path d="M29.333 16c0 7.364-5.97 13.333-13.333 13.333s-13.333-5.97-13.333-13.333c0-7.364 5.97-13.333 13.333-13.333s13.333 5.97 13.333 13.333z"></path>
      <path fill="#fff" d="M12.132 11.89v1.449l5.738 0.005-6.252 6.252 1.027 1.027 6.252-6.252 0.005 5.738h1.449v-8.219z"></path>
    </symbol>
    <symbol id="icon-play-video" viewBox="0 0 32 32">
      <title>play-video</title>
      <path d="M13.333 22v-12l8 6-8 6zM16 2.667c-7.36 0-13.333 5.973-13.333 13.333s5.973 13.333 13.333 13.333c7.36 0 13.333-5.973 13.333-13.333s-5.973-13.333-13.333-13.333v0z"></path>
    </symbol>
    <symbol id="icon-academic-paper" viewBox="0 0 32 32">
      <title>academic-paper</title>
      <path d="M22.667 4h-13.333c-1.467 0-2.653 1.2-2.653 2.667l-0.013 21.333 9.333-4 9.333 4v-21.333c0-1.467-1.2-2.667-2.667-2.667v0z"></path>
    </symbol>
    <symbol id="icon-briefing" viewBox="0 0 32 32">
      <title>briefing</title>
      <path d="M16 12h5.333c0.733 0 1.333-0.6 1.333-1.333s-0.6-1.333-1.333-1.333h-5.333c-0.733 0-1.333 0.6-1.333 1.333s0.6 1.333 1.333 1.333zM16 17.333h5.333c0.733 0 1.333-0.6 1.333-1.333s-0.6-1.333-1.333-1.333h-5.333c-0.733 0-1.333 0.6-1.333 1.333s0.6 1.333 1.333 1.333zM16 22.667h5.333c0.733 0 1.333-0.6 1.333-1.333s-0.6-1.333-1.333-1.333h-5.333c-0.733 0-1.333 0.6-1.333 1.333s0.6 1.333 1.333 1.333zM9.333 9.333h2.667v2.667h-2.667v-2.667zM9.333 14.667h2.667v2.667h-2.667v-2.667zM9.333 20h2.667v2.667h-2.667v-2.667zM26.667 4h-21.333c-0.733 0-1.333 0.6-1.333 1.333v21.333c0 0.733 0.6 1.333 1.333 1.333h21.333c0.733 0 1.333-0.6 1.333-1.333v-21.333c0-0.733-0.6-1.333-1.333-1.333zM25.333 25.333h-18.667v-18.667h18.667v18.667z"></path>
    </symbol>
    <symbol id="icon-course" viewBox="0 0 32 32">
      <title>course</title>
      <path d="M6.667 17.573v3.747c0 0.973 0.533 1.88 1.387 2.347l6.667 3.64c0.8 0.44 1.76 0.44 2.56 0l6.667-3.64c0.853-0.467 1.387-1.373 1.387-2.347v-3.747l-8.053 4.4c-0.8 0.44-1.76 0.44-2.56 0l-8.053-4.4zM14.72 4.693l-11.24 6.133c-0.92 0.507-0.92 1.84 0 2.347l11.24 6.133c0.8 0.44 1.76 0.44 2.56 0l10.72-5.853v7.88c0 0.733 0.6 1.333 1.333 1.333s1.333-0.6 1.333-1.333v-8.547c0-0.493-0.267-0.933-0.693-1.173l-12.693-6.92c-0.8-0.427-1.76-0.427-2.56 0z"></path>
    </symbol>
    <symbol id="icon-e-book" viewBox="0 0 32 32">
      <title>e-book</title>
      <path d="M24 0h-16c-2.213 0-4 1.787-4 4v24c0 2.213 1.787 4 4 4h16c2.213 0 4-1.787 4-4v-24c0-2.213-1.787-4-4-4zM18 29.333h-4c-0.373 0-0.667-0.293-0.667-0.667s0.293-0.667 0.667-0.667h4c0.373 0 0.667 0.293 0.667 0.667s-0.293 0.667-0.667 0.667zM25.667 25.333h-19.333v-21.333h19.333v21.333z"></path>
      <path d="M17.333 18.667h-8c-0.733 0-1.333 0.6-1.333 1.333s0.6 1.333 1.333 1.333h8c0.733 0 1.333-0.6 1.333-1.333s-0.6-1.333-1.333-1.333z"></path>
      <path d="M21.465 14.667h-12.131c-0.733 0-1.333 0.6-1.333 1.333s0.6 1.333 1.333 1.333h12.131c0.733 0 1.333-0.6 1.333-1.333s-0.6-1.333-1.333-1.333z"></path>
      <path d="M21.465 10.667h-12.131c-0.733 0-1.333 0.6-1.333 1.333s0.6 1.333 1.333 1.333h12.131c0.733 0 1.333-0.6 1.333-1.333s-0.6-1.333-1.333-1.333z"></path>
      <path d="M21.465 6.667h-12.131c-0.733 0-1.333 0.6-1.333 1.333s0.6 1.333 1.333 1.333h12.131c0.733 0 1.333-0.6 1.333-1.333s-0.6-1.333-1.333-1.333z"></path>
    </symbol>
    <symbol id="icon-event" viewBox="0 0 32 32">
      <title>event</title>
      <path d="M21.333 14.667h-10.667c-0.733 0-1.333 0.6-1.333 1.333s0.6 1.333 1.333 1.333h10.667c0.733 0 1.333-0.6 1.333-1.333s-0.6-1.333-1.333-1.333zM25.333 5.333h-1.333v-1.333c0-0.733-0.6-1.333-1.333-1.333s-1.333 0.6-1.333 1.333v1.333h-10.667v-1.333c0-0.733-0.6-1.333-1.333-1.333s-1.333 0.6-1.333 1.333v1.333h-1.333c-1.48 0-2.667 1.2-2.667 2.667v18.667c0 1.467 1.187 2.667 2.667 2.667h18.667c1.467 0 2.667-1.2 2.667-2.667v-18.667c0-1.467-1.2-2.667-2.667-2.667zM24 26.667h-16c-0.733 0-1.333-0.6-1.333-1.333v-13.333h18.667v13.333c0 0.733-0.6 1.333-1.333 1.333zM17.333 20h-6.667c-0.733 0-1.333 0.6-1.333 1.333s0.6 1.333 1.333 1.333h6.667c0.733 0 1.333-0.6 1.333-1.333s-0.6-1.333-1.333-1.333z"></path>
    </symbol>
    <symbol id="icon-infographic" viewBox="0 0 32 32">
      <title>infographic</title>
      <path d="M25.333 4h-18.667c-1.467 0-2.667 1.2-2.667 2.667v18.667c0 1.467 1.2 2.667 2.667 2.667h18.667c1.467 0 2.667-1.2 2.667-2.667v-18.667c0-1.467-1.2-2.667-2.667-2.667v0zM12 22.667h-2.667v-9.333h2.667v9.333zM17.333 22.667h-2.667v-13.333h2.667v13.333zM22.667 22.667h-2.667v-5.333h2.667v5.333z"></path>
    </symbol>
    <symbol id="icon-learning-resource" viewBox="0 0 32 32">
      <title>learning-resource</title>
      <path d="M5.667 26.387c0.52 0.52 1.36 0.52 1.88 0l0.52-0.52c0.52-0.52 0.507-1.36 0-1.867l-0.013-0.013c-0.52-0.52-1.36-0.52-1.88 0l-0.52 0.52c-0.507 0.533-0.507 1.36 0.013 1.88z"></path>
      <path d="M15.987 30.667h0.013c0.733 0 1.32-0.587 1.32-1.32v-1.28c0-0.733-0.587-1.32-1.32-1.32h-0.013c-0.733 0-1.32 0.587-1.32 1.32v1.28c0 0.733 0.587 1.32 1.32 1.32z"></path>
      <path d="M4.013 14.733h-1.36c-0.733 0-1.32 0.587-1.32 1.32v0.013c0 0.733 0.587 1.32 1.32 1.32h1.347c0.733 0 1.32-0.587 1.32-1.32v-0.013c0.013-0.733-0.573-1.32-1.307-1.32z"></path>
      <path d="M20.307 9.334c2.217 1.424 3.693 3.902 3.693 6.746 0 4.733-4.147 8.52-9 7.933-3.493-0.427-6.373-3.213-6.907-6.693-0.5-3.347 1.059-6.361 3.599-7.986zM18.667 2.733c0.733 0 1.333 0.6 1.333 1.333v0l-0.001 3.933h-8l0.001-3.933c0-0.681 0.517-1.247 1.178-1.324l0.155-0.009z"></path>
      <path d="M26.667 16.053v0.013c0 0.733 0.587 1.32 1.32 1.32h1.347c0.733 0 1.32-0.587 1.32-1.32v-0.013c0-0.733-0.587-1.32-1.32-1.32h-1.347c-0.733 0-1.32 0.587-1.32 1.32z"></path>
      <path d="M23.92 25.88l0.52 0.52c0.52 0.52 1.36 0.52 1.88 0s0.52-1.36 0-1.88l-0.52-0.52c-0.52-0.52-1.36-0.507-1.867 0-0.533 0.533-0.533 1.36-0.013 1.88z"></path>
    </symbol>
    <symbol id="icon-network" viewBox="0 0 32 32">
      <title>network</title>
      <path d="M28 8h-2.667v12h-17.333v2.667c0 0.733 0.6 1.333 1.333 1.333h14.667l5.333 5.333v-20c0-0.733-0.6-1.333-1.333-1.333v0zM22.667 16v-12c0-0.733-0.6-1.333-1.333-1.333h-17.333c-0.733 0-1.333 0.6-1.333 1.333v18.667l5.333-5.333h13.333c0.733 0 1.333-0.6 1.333-1.333v0z"></path>
    </symbol>
    <symbol id="icon-news" viewBox="0 0 32 32">
      <title>news</title>
      <path d="M26.667 2.667h-21.333c-1.467 0-2.653 1.2-2.653 2.667l-0.013 24 5.333-5.333h18.667c1.467 0 2.667-1.2 2.667-2.667v-16c0-1.467-1.2-2.667-2.667-2.667v0zM24 18.667h-16v-2.667h16v2.667zM24 14.667h-16v-2.667h16v2.667zM24 10.667h-16v-2.667h16v2.667z"></path>
    </symbol>
    <symbol id="icon-policy-document" viewBox="0 0 32 32">
      <title>policy-document</title>
      <path d="M19.453 3.453c-0.507-0.507-1.187-0.787-1.893-0.787h-9.56c-1.467 0-2.667 1.2-2.667 2.667v21.333c0 1.467 1.187 2.667 2.653 2.667h16.013c1.467 0 2.667-1.2 2.667-2.667v-14.893c0-0.707-0.28-1.387-0.787-1.88l-6.427-6.44zM20 24h-8c-0.733 0-1.333-0.6-1.333-1.333s0.6-1.333 1.333-1.333h8c0.733 0 1.333 0.6 1.333 1.333s-0.6 1.333-1.333 1.333zM20 18.667h-8c-0.733 0-1.333-0.6-1.333-1.333s0.6-1.333 1.333-1.333h8c0.733 0 1.333 0.6 1.333 1.333s-0.6 1.333-1.333 1.333zM17.333 10.667v-6l7.333 7.333h-6c-0.733 0-1.333-0.6-1.333-1.333z"></path>
    </symbol>
    <symbol id="icon-report" viewBox="0 0 32 32">
      <title>report</title>
      <path d="M25.333 5.333h-5.573c-0.56-1.547-2.027-2.667-3.76-2.667s-3.2 1.12-3.76 2.667h-5.573c-1.467 0-2.667 1.2-2.667 2.667v18.667c0 1.467 1.2 2.667 2.667 2.667h18.667c1.467 0 2.667-1.2 2.667-2.667v-18.667c0-1.467-1.2-2.667-2.667-2.667zM16 5.333c0.733 0 1.333 0.6 1.333 1.333s-0.6 1.333-1.333 1.333c-0.733 0-1.333-0.6-1.333-1.333s0.6-1.333 1.333-1.333zM17.333 24h-6.667c-0.733 0-1.333-0.6-1.333-1.333s0.6-1.333 1.333-1.333h6.667c0.733 0 1.333 0.6 1.333 1.333s-0.6 1.333-1.333 1.333zM21.333 18.667h-10.667c-0.733 0-1.333-0.6-1.333-1.333s0.6-1.333 1.333-1.333h10.667c0.733 0 1.333 0.6 1.333 1.333s-0.6 1.333-1.333 1.333zM21.333 13.333h-10.667c-0.733 0-1.333-0.6-1.333-1.333s0.6-1.333 1.333-1.333h10.667c0.733 0 1.333 0.6 1.333 1.333s-0.6 1.333-1.333 1.333z"></path>
    </symbol>
    <symbol id="icon-teaching-resource" viewBox="0 0 32 32">
      <title>teaching-resource</title>
      <path d="M10.003 23.003v-14.107c0-2.787 2.040-5.267 4.813-5.533 3.173-0.307 5.853 2.187 5.853 5.307v16.48c0 1.747-1.253 3.333-2.987 3.507-2 0.2-3.68-1.36-3.68-3.32v-14c0-0.733 0.6-1.333 1.333-1.333s1.333 0.6 1.333 1.333v11.667c0 0.547 0.453 1 1 1s1-0.453 1-1v-11.48c0-1.747-1.253-3.333-2.987-3.507-2-0.2-3.68 1.36-3.68 3.32v13.773c0 2.787 2.040 5.267 4.813 5.533 3.187 0.307 5.853-2.187 5.853-5.307v-16.36c0-3.827-2.8-7.253-6.613-7.613-4.387-0.4-8.053 3.013-8.053 7.307v14.333c0 0.547 0.453 1 1 1s1-0.453 1-1z"></path>
    </symbol>
    <symbol id="icon-webinar" viewBox="0 0 32 32">
      <title>webinar</title>
      <path d="M30.667 24h-1.333v-17.333c0-1.467-1.2-2.667-2.667-2.667h-21.333c-1.467 0-2.667 1.2-2.667 2.667v17.333h-1.333c-0.733 0-1.333 0.6-1.333 1.333s0.6 1.333 1.333 1.333h29.333c0.733 0 1.333-0.6 1.333-1.333s-0.6-1.333-1.333-1.333zM18 24h-4c-0.373 0-0.667-0.293-0.667-0.667s0.293-0.667 0.667-0.667h4c0.373 0 0.667 0.293 0.667 0.667s-0.293 0.667-0.667 0.667zM26.667 20h-21.333v-12c0-0.733 0.6-1.333 1.333-1.333h18.667c0.733 0 1.333 0.6 1.333 1.333v12z"></path>
    </symbol>
    <symbol id="icon-web-link" viewBox="0 0 32 32">
      <title>web-link</title>
      <path d="M24 25.333h-16c-0.733 0-1.333-0.6-1.333-1.333v-16c0-0.733 0.6-1.333 1.333-1.333h6.667c0.733 0 1.333-0.6 1.333-1.333s-0.6-1.333-1.333-1.333h-8c-1.48 0-2.667 1.2-2.667 2.667v18.667c0 1.467 1.2 2.667 2.667 2.667h18.667c1.467 0 2.667-1.2 2.667-2.667v-8c0-0.733-0.6-1.333-1.333-1.333s-1.333 0.6-1.333 1.333v6.667c0 0.733-0.6 1.333-1.333 1.333zM18.667 5.333c0 0.733 0.6 1.333 1.333 1.333h3.453l-12.173 12.173c-0.52 0.52-0.52 1.36 0 1.88s1.36 0.52 1.88 0l12.173-12.173v3.453c0 0.733 0.6 1.333 1.333 1.333s1.333-0.6 1.333-1.333v-8h-8c-0.733 0-1.333 0.6-1.333 1.333z"></path>
    </symbol>
    <symbol id="icon-action" viewBox="0 0 24 24">
      <title>action</title>
      <path d="M9,9.24 L9,5.5 C9,4.12 10.12,3 11.5,3 C12.88,3 14,4.12 14,5.5 L14,9.24 C15.21,8.43 16,7.06 16,5.5 C16,3.01 13.99,1 11.5,1 C9.01,1 7,3.01 7,5.5 C7,7.06 7.79,8.43 9,9.24 Z M14.5,11.71 C14.22,11.57 13.92,11.5 13.61,11.5 L13,11.5 L13,5.5 C13,4.67 12.33,4 11.5,4 C10.67,4 10,4.67 10,5.5 L10,16.24 L6.56,15.52 C6.19,15.44 5.8,15.56 5.53,15.83 C5.1,16.27 5.1,16.97 5.53,17.41 L9.54,21.42 C9.92,21.79 10.43,22 10.96,22 L17.06,22 C18.06,22 18.9,21.27 19.04,20.28 L19.67,15.81 C19.79,14.96 19.35,14.12 18.58,13.74 L14.5,11.71 L14.5,11.71 Z"></path>
    </symbol>
    <symbol id="icon-education" viewBox="0 0 24 24">
      <title>education</title>
      <g transform="translate(3,2)">
        <path d="M9.09090909,18.6363636 C10.4545455,18.6363636 9.54545455,19.5454545 12.2727273,19.5454545 C15,19.5454545 17.7272727,14.0909091 17.7272727,10.4545455 C17.7272727,6.81818182 15.4545455,4.09090909 12.7272727,4.09090909 C10,4.09090909 10,5 9.09090909,5 C8.18181818,5 8.18181818,4.09090909 5.45454545,4.09090909 C2.72727273,4.09090909 0.454545455,6.81818182 0.454545455,10.4545455 C0.454545455,14.0909091 3.18181818,19.5454545 5.90909091,19.5454545 C8.63636364,19.5454545 7.72727273,18.6363636 9.09090909,18.6363636 Z" ></path>
        <path d="M9.09090909,5 L9.09090909,3.18181818 C9.09090909,2.18181818 8.27272727,1.36363636 7.27272727,1.36363636" stroke-linecap="round" stroke-linejoin="round"></path>
        <path d="M9.32162198,4.20276989 C11.3297028,4.20276989 12.9579856,2.57529514 12.9579856,0.56640625 C10.9499048,0.56640625 9.32162198,2.19549716 9.32162198,4.20276989 Z" transform="translate(11.139804, 2.384588) rotate(-360.000000) translate(-11.139804, -2.384588) "></path>
      </g>
    </symbol>
    <symbol id="icon-policy" viewBox="0 0 24 24">
      <title>policy</title>
      <path d="M18,2 L6,2 C4.9,2 4,2.9 4,4 L4,20 C4,21.1 4.9,22 6,22 L18,22 C19.1,22 20,21.1 20,20 L20,4 C20,2.9 19.1,2 18,2 Z M6,4 L11,4 L11,12 L8.5,10.5 L6,12 L6,4 Z"></path>
    </symbol>
    <symbol id="icon-training" viewBox="0 0 24 24">
      <title>training</title>
      <path d="M11.6162508,1.171 C11.8052508,0.943 12.1942508,0.943 12.3832508,1.171 L12.3832508,1.171 L13.4902508,2.499 L15.0192508,1.697 C15.2902508,1.553 15.6352508,1.69 15.7292508,1.991 L15.7292508,1.991 L16.2442508,3.64 L17.9652508,3.482 C18.2822508,3.453 18.5362508,3.724 18.5072508,4.025 L18.5072508,4.025 L18.3512508,5.747 L20.0012508,6.261 C20.2992508,6.354 20.4402508,6.694 20.2952508,6.971 L20.2952508,6.971 L19.4932508,8.502 L20.8202508,9.607 C21.0602508,9.809 21.0582508,10.177 20.8202508,10.376 L20.8202508,10.376 L19.4932508,11.482 L20.2952508,13.012 C20.4392508,13.286 20.3022508,13.626 20.0012508,13.722 L20.0012508,13.722 L18.3512508,14.236 L18.5072508,15.957 C18.5362508,16.265 18.2732508,16.532 17.9652508,16.5 L17.9652508,16.5 L16.2442508,16.344 L16.191,16.513 L16.0948804,22.2938692 C16.0817279,22.8868781 15.3183967,23.1822533 14.8278076,22.8346358 L14.7442725,22.7665466 L12.3438817,20.5293949 L12.0743906,20.5245511 L9.57557533,22.6735864 C9.07851284,23.1043538 8.23273032,22.7798988 8.24736226,22.1525545 L8.24736226,22.1525545 L8.30462654,18.0781446 C8.29047773,18.0514284 8.27857511,18.023 8.26925078,17.993 L8.26925078,17.993 L7.75625078,16.344 L6.03425078,16.5 C5.73325078,16.532 5.46225078,16.274 5.49125078,15.957 L5.49125078,15.957 L5.64825078,14.236 L3.99925078,13.722 C3.69725078,13.626 3.56025078,13.286 3.70525078,13.012 L3.70525078,13.012 L4.50725078,11.482 L3.17925078,10.376 C2.94125078,10.177 2.93925078,9.809 3.17925078,9.607 L3.17925078,9.607 L4.50725078,8.502 L3.70525078,6.971 C3.55925078,6.694 3.70125078,6.354 3.99925078,6.261 L3.99925078,6.261 L5.64825078,5.747 L5.49125078,4.026 C5.46325078,3.715 5.72525078,3.454 6.03425078,3.482 L6.03425078,3.482 L7.75625078,3.64 L8.26925078,1.991 C8.35925078,1.7 8.69325078,1.549 8.97925078,1.697 L8.97925078,1.697 L10.5082508,2.499 Z"></path>
    </symbol>
    <symbol id="icon-science" viewBox="0 0 24 24">
      <title>science</title>
      <g transform="translate(4, 2)">
        <path d="M10.1587876,1.9995 L10.1587876,9.9995 L14.9557876,17.8535 C15.3827876,18.4635 15.4357876,19.2615 15.0907876,19.9235 C14.7467876,20.5845 14.0627876,20.9995 13.3167876,20.9995 L13.3167876,20.9995 L2.0007876,20.9995 C1.2547876,20.9995 0.570787596,20.5845 0.225787596,19.9235 C-0.118212404,19.2615 -0.066212404,18.4635 0.361787596,17.8535 L0.361787596,17.8535 L5.1587876,9.9995 L5.1587876,1.9995 L10.1587876,1.9995 Z M11.1586876,18.5 C10.8826876,18.5 10.6586876,18.724 10.6586876,19 C10.6586876,19.276 10.8826876,19.5 11.1586876,19.5 C11.4346876,19.5 11.6586876,19.276 11.6586876,19 C11.6586876,18.724 11.4346876,18.5 11.1586876,18.5 Z M5.1586876,16 C4.3306876,16 3.6586876,16.672 3.6586876,17.5 C3.6586876,18.328 4.3306876,19 5.1586876,19 C5.9866876,19 6.6586876,18.328 6.6586876,17.5 C6.6586876,16.672 5.9866876,16 5.1586876,16 Z M8.9086876,16 C8.7706876,16 8.6586876,16.112 8.6586876,16.25 C8.6586876,16.388 8.7706876,16.5 8.9086876,16.5 C9.0466876,16.5 9.1586876,16.388 9.1586876,16.25 C9.1586876,16.112 9.0466876,16 8.9086876,16 Z"></path>
        <path d="M12.1586876,1 C12.1586876,1.553 11.7116876,2 11.1586876,2 L4.1586876,2 C3.6056876,2 3.1586876,1.553 3.1586876,1 C3.1586876,0.447 3.6056876,0 4.1586876,0 L11.1586876,0 C11.7116876,0 12.1586876,0.447 12.1586876,1 Z"></path>
      </g>
    </symbol>
    <symbol id="icon-community" viewBox="0 0 24 24">
      <title>community</title>
      <path d="M16,11 C17.66,11 18.99,9.66 18.99,8 C18.99,6.34 17.66,5 16,5 C14.34,5 13,6.34 13,8 C13,9.66 14.34,11 16,11 Z M8,11 C9.66,11 10.99,9.66 10.99,8 C10.99,6.34 9.66,5 8,5 C6.34,5 5,6.34 5,8 C5,9.66 6.34,11 8,11 Z M8,13 C5.67,13 1,14.17 1,16.5 L1,18 C1,18.55 1.45,19 2,19 L14,19 C14.55,19 15,18.55 15,18 L15,16.5 C15,14.17 10.33,13 8,13 Z M16,13 C15.71,13 15.38,13.02 15.03,13.05 C15.05,13.06 15.06,13.08 15.07,13.09 C16.21,13.92 17,15.03 17,16.5 L17,18 C17,18.35 16.93,18.69 16.82,19 L22,19 C22.55,19 23,18.55 23,18 L23,16.5 C23,14.17 18.33,13 16,13 Z"></path>
    </symbol>
  </defs>
</svg>
