<svg aria-hidden="true" style="position: absolute; width: 0; height: 0; overflow: hidden;" version="1.1" xmlns="http://www.w3.org/2000/svg" xmlns:xlink="http://www.w3.org/1999/xlink">
  <defs>
    <symbol id="icon-search" viewBox="0 0 32 32">
      <title>search</title>
      <path fill="none" stroke="#115f85" style="stroke: var(--color1, #115f85)" stroke-linejoin="miter" stroke-linecap="butt" stroke-miterlimit="4" stroke-width="2" d="M2.8 13.8c0-6.050 4.95-11 11-11s11 4.95 11 11c0 6.050-4.95 11-11 11s-11-4.95-11-11v0z"></path>
      <path d="M28.064 29.398c-4.446-4.446-6.815-6.815-7.105-7.105-0.436-0.436 1.137-1.692 1.527-1.302 0.26 0.26 2.591 2.591 6.993 6.993 0.389 0.389 0.389 1.025 0 1.414s-1.025 0.389-1.414 0z"></path>
    </symbol>
    <symbol id="icon-video" viewBox="0 0 32 32">
      <title>video</title>
      <path d="M22.667 14v-4.667c0-0.733-0.6-1.333-1.333-1.333h-16c-0.733 0-1.333 0.6-1.333 1.333v13.333c0 0.733 0.6 1.333 1.333 1.333h16c0.733 0 1.333-0.6 1.333-1.333v-4.667l3.053 3.053c0.84 0.84 2.28 0.24 2.28-0.947v-8.227c0-1.187-1.44-1.787-2.28-0.947l-3.053 3.067z"></path>
    </symbol>
    <symbol id="icon-close" viewBox="0 0 32 32">
      <title>close</title>
      <path d="M25.903 7.709l-18.468 18.468c-0.519 0.519-1.367 0.519-1.886 0s-0.519-1.367 0-1.886l18.468-18.468c0.519-0.519 1.367-0.519 1.886 0s0.519 1.367 0 1.886z"></path>
      <path d="M7.434 5.823l18.468 18.468c0.519 0.519 0.519 1.367 0 1.886s-1.367 0.519-1.886 0l-18.468-18.468c-0.519-0.519-0.519-1.367 0-1.886s1.367-0.519 1.886 0z"></path>
    </symbol>
    <symbol id="icon-info" viewBox="0 0 32 32">
      <title>info</title>
      <path fill="#125f85" style="fill: var(--color2, #125f85)" d="M17.2 22.101c0 0.55-0.45 1-1 1s-1-0.45-1-1v-8.576c0-0.55 0.45-1 1-1s1 0.45 1 1v8.576z"></path>
      <path fill="none" stroke="#125f85" style="stroke: var(--color2, #125f85)" stroke-linejoin="miter" stroke-linecap="butt" stroke-miterlimit="4" stroke-width="2" d="M16.2 29.4c-7.26 0-13.2-5.94-13.2-13.2s5.94-13.2 13.2-13.2c7.26 0 13.2 5.94 13.2 13.2s-5.94 13.2-13.2 13.2"></path>
      <path fill="#125f85" style="fill: var(--color2, #125f85)" d="M16.2 11.515c0.671 0 1.216-0.544 1.216-1.216s-0.545-1.216-1.216-1.216c-0.671 0-1.216 0.544-1.216 1.216s0.545 1.216 1.216 1.216z"></path>
    </symbol>
    <symbol id="icon-study-arrow" viewBox="0 0 32 32">
      <title>study-arrow</title>
      <path d="M29.333 16c0 7.364-5.97 13.333-13.333 13.333s-13.333-5.97-13.333-13.333c0-7.364 5.97-13.333 13.333-13.333s13.333 5.97 13.333 13.333z"></path>
      <path fill="#fff" d="M12.132 11.89v1.449l5.738 0.005-6.252 6.252 1.027 1.027 6.252-6.252 0.005 5.738h1.449v-8.219z"></path>
    </symbol>
    <symbol id="icon-play-video" viewBox="0 0 32 32">
      <title>play-video</title>
      <path d="M13.333 22v-12l8 6-8 6zM16 2.667c-7.36 0-13.333 5.973-13.333 13.333s5.973 13.333 13.333 13.333c7.36 0 13.333-5.973 13.333-13.333s-5.973-13.333-13.333-13.333v0z"></path>
    </symbol>
    <symbol id="icon-academic-paper" viewBox="0 0 32 32">
      <title>academic-paper</title>
      <path d="M22.667 4h-13.333c-1.467 0-2.653 1.2-2.653 2.667l-0.013 21.333 9.333-4 9.333 4v-21.333c0-1.467-1.2-2.667-2.667-2.667v0z"></path>
    </symbol>
    <symbol id="icon-briefing" viewBox="0 0 32 32">
      <title>briefing</title>
      <path d="M16 12h5.333c0.733 0 1.333-0.6 1.333-1.333s-0.6-1.333-1.333-1.333h-5.333c-0.733 0-1.333 0.6-1.333 1.333s0.6 1.333 1.333 1.333zM16 17.333h5.333c0.733 0 1.333-0.6 1.333-1.333s-0.6-1.333-1.333-1.333h-5.333c-0.733 0-1.333 0.6-1.333 1.333s0.6 1.333 1.333 1.333zM16 22.667h5.333c0.733 0 1.333-0.6 1.333-1.333s-0.6-1.333-1.333-1.333h-5.333c-0.733 0-1.333 0.6-1.333 1.333s0.6 1.333 1.333 1.333zM9.333 9.333h2.667v2.667h-2.667v-2.667zM9.333 14.667h2.667v2.667h-2.667v-2.667zM9.333 20h2.667v2.667h-2.667v-2.667zM26.667 4h-21.333c-0.733 0-1.333 0.6-1.333 1.333v21.333c0 0.733 0.6 1.333 1.333 1.333h21.333c0.733 0 1.333-0.6 1.333-1.333v-21.333c0-0.733-0.6-1.333-1.333-1.333zM25.333 25.333h-18.667v-18.667h18.667v18.667z"></path>
    </symbol>
    <symbol id="icon-course" viewBox="0 0 32 32">
      <title>course</title>
      <path d="M6.667 17.573v3.747c0 0.973 0.533 1.88 1.387 2.347l6.667 3.64c0.8 0.44 1.76 0.44 2.56 0l6.667-3.64c0.853-0.467 1.387-1.373 1.387-2.347v-3.747l-8.053 4.4c-0.8 0.44-1.76 0.44-2.56 0l-8.053-4.4zM14.72 4.693l-11.24 6.133c-0.92 0.507-0.92 1.84 0 2.347l11.24 6.133c0.8 0.44 1.76 0.44 2.56 0l10.72-5.853v7.88c0 0.733 0.6 1.333 1.333 1.333s1.333-0.6 1.333-1.333v-8.547c0-0.493-0.267-0.933-0.693-1.173l-12.693-6.92c-0.8-0.427-1.76-0.427-2.56 0z"></path>
    </symbol>
    <symbol id="icon-e-book" viewBox="0 0 32 32">
      <title>e-book</title>
      <path d="M24 0h-16c-2.213 0-4 1.787-4 4v24c0 2.213 1.787 4 4 4h16c2.213 0 4-1.787 4-4v-24c0-2.213-1.787-4-4-4zM18 29.333h-4c-0.373 0-0.667-0.293-0.667-0.667s0.293-0.667 0.667-0.667h4c0.373 0 0.667 0.293 0.667 0.667s-0.293 0.667-0.667 0.667zM25.667 25.333h-19.333v-21.333h19.333v21.333z"></path>
      <path d="M17.333 18.667h-8c-0.733 0-1.333 0.6-1.333 1.333s0.6 1.333 1.333 1.333h8c0.733 0 1.333-0.6 1.333-1.333s-0.6-1.333-1.333-1.333z"></path>
      <path d="M21.465 14.667h-12.131c-0.733 0-1.333 0.6-1.333 1.333s0.6 1.333 1.333 1.333h12.131c0.733 0 1.333-0.6 1.333-1.333s-0.6-1.333-1.333-1.333z"></path>
      <path d="M21.465 10.667h-12.131c-0.733 0-1.333 0.6-1.333 1.333s0.6 1.333 1.333 1.333h12.131c0.733 0 1.333-0.6 1.333-1.333s-0.6-1.333-1.333-1.333z"></path>
      <path d="M21.465 6.667h-12.131c-0.733 0-1.333 0.6-1.333 1.333s0.6 1.333 1.333 1.333h12.131c0.733 0 1.333-0.6 1.333-1.333s-0.6-1.333-1.333-1.333z"></path>
    </symbol>
    <symbol id="icon-event" viewBox="0 0 32 32">
      <title>event</title>
      <path d="M21.333 14.667h-10.667c-0.733 0-1.333 0.6-1.333 1.333s0.6 1.333 1.333 1.333h10.667c0.733 0 1.333-0.6 1.333-1.333s-0.6-1.333-1.333-1.333zM25.333 5.333h-1.333v-1.333c0-0.733-0.6-1.333-1.333-1.333s-1.333 0.6-1.333 1.333v1.333h-10.667v-1.333c0-0.733-0.6-1.333-1.333-1.333s-1.333 0.6-1.333 1.333v1.333h-1.333c-1.48 0-2.667 1.2-2.667 2.667v18.667c0 1.467 1.187 2.667 2.667 2.667h18.667c1.467 0 2.667-1.2 2.667-2.667v-18.667c0-1.467-1.2-2.667-2.667-2.667zM24 26.667h-16c-0.733 0-1.333-0.6-1.333-1.333v-13.333h18.667v13.333c0 0.733-0.6 1.333-1.333 1.333zM17.333 20h-6.667c-0.733 0-1.333 0.6-1.333 1.333s0.6 1.333 1.333 1.333h6.667c0.733 0 1.333-0.6 1.333-1.333s-0.6-1.333-1.333-1.333z"></path>
    </symbol>
    <symbol id="icon-infographic" viewBox="0 0 32 32">
      <title>infographic</title>
      <path d="M25.333 4h-18.667c-1.467 0-2.667 1.2-2.667 2.667v18.667c0 1.467 1.2 2.667 2.667 2.667h18.667c1.467 0 2.667-1.2 2.667-2.667v-18.667c0-1.467-1.2-2.667-2.667-2.667v0zM12 22.667h-2.667v-9.333h2.667v9.333zM17.333 22.667h-2.667v-13.333h2.667v13.333zM22.667 22.667h-2.667v-5.333h2.667v5.333z"></path>
    </symbol>
    <symbol id="icon-learning-resource" viewBox="0 0 32 32">
      <title>learning-resource</title>
      <path d="M5.667 26.387c0.52 0.52 1.36 0.52 1.88 0l0.52-0.52c0.52-0.52 0.507-1.36 0-1.867l-0.013-0.013c-0.52-0.52-1.36-0.52-1.88 0l-0.52 0.52c-0.507 0.533-0.507 1.36 0.013 1.88z"></path>
      <path d="M15.987 30.667h0.013c0.733 0 1.32-0.587 1.32-1.32v-1.28c0-0.733-0.587-1.32-1.32-1.32h-0.013c-0.733 0-1.32 0.587-1.32 1.32v1.28c0 0.733 0.587 1.32 1.32 1.32z"></path>
      <path d="M4.013 14.733h-1.36c-0.733 0-1.32 0.587-1.32 1.32v0.013c0 0.733 0.587 1.32 1.32 1.32h1.347c0.733 0 1.32-0.587 1.32-1.32v-0.013c0.013-0.733-0.573-1.32-1.307-1.32z"></path>
      <path d="M20.307 9.334c2.217 1.424 3.693 3.902 3.693 6.746 0 4.733-4.147 8.52-9 7.933-3.493-0.427-6.373-3.213-6.907-6.693-0.5-3.347 1.059-6.361 3.599-7.986zM18.667 2.733c0.733 0 1.333 0.6 1.333 1.333v0l-0.001 3.933h-8l0.001-3.933c0-0.681 0.517-1.247 1.178-1.324l0.155-0.009z"></path>
      <path d="M26.667 16.053v0.013c0 0.733 0.587 1.32 1.32 1.32h1.347c0.733 0 1.32-0.587 1.32-1.32v-0.013c0-0.733-0.587-1.32-1.32-1.32h-1.347c-0.733 0-1.32 0.587-1.32 1.32z"></path>
      <path d="M23.92 25.88l0.52 0.52c0.52 0.52 1.36 0.52 1.88 0s0.52-1.36 0-1.88l-0.52-0.52c-0.52-0.52-1.36-0.507-1.867 0-0.533 0.533-0.533 1.36-0.013 1.88z"></path>
    </symbol>
    <symbol id="icon-network" viewBox="0 0 32 32">
      <title>network</title>
      <path d="M28 8h-2.667v12h-17.333v2.667c0 0.733 0.6 1.333 1.333 1.333h14.667l5.333 5.333v-20c0-0.733-0.6-1.333-1.333-1.333v0zM22.667 16v-12c0-0.733-0.6-1.333-1.333-1.333h-17.333c-0.733 0-1.333 0.6-1.333 1.333v18.667l5.333-5.333h13.333c0.733 0 1.333-0.6 1.333-1.333v0z"></path>
    </symbol>
    <symbol id="icon-news" viewBox="0 0 32 32">
      <title>news</title>
      <path d="M26.667 2.667h-21.333c-1.467 0-2.653 1.2-2.653 2.667l-0.013 24 5.333-5.333h18.667c1.467 0 2.667-1.2 2.667-2.667v-16c0-1.467-1.2-2.667-2.667-2.667v0zM24 18.667h-16v-2.667h16v2.667zM24 14.667h-16v-2.667h16v2.667zM24 10.667h-16v-2.667h16v2.667z"></path>
    </symbol>
    <symbol id="icon-policy-document" viewBox="0 0 32 32">
      <title>policy-document</title>
      <path d="M19.453 3.453c-0.507-0.507-1.187-0.787-1.893-0.787h-9.56c-1.467 0-2.667 1.2-2.667 2.667v21.333c0 1.467 1.187 2.667 2.653 2.667h16.013c1.467 0 2.667-1.2 2.667-2.667v-14.893c0-0.707-0.28-1.387-0.787-1.88l-6.427-6.44zM20 24h-8c-0.733 0-1.333-0.6-1.333-1.333s0.6-1.333 1.333-1.333h8c0.733 0 1.333 0.6 1.333 1.333s-0.6 1.333-1.333 1.333zM20 18.667h-8c-0.733 0-1.333-0.6-1.333-1.333s0.6-1.333 1.333-1.333h8c0.733 0 1.333 0.6 1.333 1.333s-0.6 1.333-1.333 1.333zM17.333 10.667v-6l7.333 7.333h-6c-0.733 0-1.333-0.6-1.333-1.333z"></path>
    </symbol>
    <symbol id="icon-report" viewBox="0 0 32 32">
      <title>report</title>
      <path d="M25.333 5.333h-5.573c-0.56-1.547-2.027-2.667-3.76-2.667s-3.2 1.12-3.76 2.667h-5.573c-1.467 0-2.667 1.2-2.667 2.667v18.667c0 1.467 1.2 2.667 2.667 2.667h18.667c1.467 0 2.667-1.2 2.667-2.667v-18.667c0-1.467-1.2-2.667-2.667-2.667zM16 5.333c0.733 0 1.333 0.6 1.333 1.333s-0.6 1.333-1.333 1.333c-0.733 0-1.333-0.6-1.333-1.333s0.6-1.333 1.333-1.333zM17.333 24h-6.667c-0.733 0-1.333-0.6-1.333-1.333s0.6-1.333 1.333-1.333h6.667c0.733 0 1.333 0.6 1.333 1.333s-0.6 1.333-1.333 1.333zM21.333 18.667h-10.667c-0.733 0-1.333-0.6-1.333-1.333s0.6-1.333 1.333-1.333h10.667c0.733 0 1.333 0.6 1.333 1.333s-0.6 1.333-1.333 1.333zM21.333 13.333h-10.667c-0.733 0-1.333-0.6-1.333-1.333s0.6-1.333 1.333-1.333h10.667c0.733 0 1.333 0.6 1.333 1.333s-0.6 1.333-1.333 1.333z"></path>
    </symbol>
    <symbol id="icon-teaching-resource" viewBox="0 0 32 32">
      <title>teaching-resource</title>
      <path d="M10.003 23.003v-14.107c0-2.787 2.040-5.267 4.813-5.533 3.173-0.307 5.853 2.187 5.853 5.307v16.48c0 1.747-1.253 3.333-2.987 3.507-2 0.2-3.68-1.36-3.68-3.32v-14c0-0.733 0.6-1.333 1.333-1.333s1.333 0.6 1.333 1.333v11.667c0 0.547 0.453 1 1 1s1-0.453 1-1v-11.48c0-1.747-1.253-3.333-2.987-3.507-2-0.2-3.68 1.36-3.68 3.32v13.773c0 2.787 2.040 5.267 4.813 5.533 3.187 0.307 5.853-2.187 5.853-5.307v-16.36c0-3.827-2.8-7.253-6.613-7.613-4.387-0.4-8.053 3.013-8.053 7.307v14.333c0 0.547 0.453 1 1 1s1-0.453 1-1z"></path>
    </symbol>
    <symbol id="icon-webinar" viewBox="0 0 32 32">
      <title>webinar</title>
      <path d="M30.667 24h-1.333v-17.333c0-1.467-1.2-2.667-2.667-2.667h-21.333c-1.467 0-2.667 1.2-2.667 2.667v17.333h-1.333c-0.733 0-1.333 0.6-1.333 1.333s0.6 1.333 1.333 1.333h29.333c0.733 0 1.333-0.6 1.333-1.333s-0.6-1.333-1.333-1.333zM18 24h-4c-0.373 0-0.667-0.293-0.667-0.667s0.293-0.667 0.667-0.667h4c0.373 0 0.667 0.293 0.667 0.667s-0.293 0.667-0.667 0.667zM26.667 20h-21.333v-12c0-0.733 0.6-1.333 1.333-1.333h18.667c0.733 0 1.333 0.6 1.333 1.333v12z"></path>
    </symbol>
    <symbol id="icon-web-link" viewBox="0 0 32 32">
      <title>web-link</title>
      <path d="M24 25.333h-16c-0.733 0-1.333-0.6-1.333-1.333v-16c0-0.733 0.6-1.333 1.333-1.333h6.667c0.733 0 1.333-0.6 1.333-1.333s-0.6-1.333-1.333-1.333h-8c-1.48 0-2.667 1.2-2.667 2.667v18.667c0 1.467 1.2 2.667 2.667 2.667h18.667c1.467 0 2.667-1.2 2.667-2.667v-8c0-0.733-0.6-1.333-1.333-1.333s-1.333 0.6-1.333 1.333v6.667c0 0.733-0.6 1.333-1.333 1.333zM18.667 5.333c0 0.733 0.6 1.333 1.333 1.333h3.453l-12.173 12.173c-0.52 0.52-0.52 1.36 0 1.88s1.36 0.52 1.88 0l12.173-12.173v3.453c0 0.733 0.6 1.333 1.333 1.333s1.333-0.6 1.333-1.333v-8h-8c-0.733 0-1.333 0.6-1.333 1.333z"></path>
    </symbol>
  </defs>
</svg>
